<svg width="133" height="41" viewBox="0 0 133 41" fill="none" xmlns="http://www.w3.org/2000/svg">
<g clip-path="url(#clip0_1668_8098)">
<path d="M127.898 40.189H5.21815C2.66908 40.189 0.594238 38.061 0.594238 35.456V4.91496C0.594238 2.30896 2.66908 0.188965 5.21815 0.188965H127.898C130.446 0.188965 132.594 2.30896 132.594 4.91496V35.456C132.594 38.061 130.446 40.189 127.898 40.189Z" fill="#A6A6A6"/>
<path d="M131.648 35.457C131.648 37.573 129.972 39.287 127.899 39.287H5.21804C3.14613 39.287 1.46436 37.573 1.46436 35.457V4.91398C1.46436 2.79898 3.14613 1.07898 5.21804 1.07898H127.898C129.972 1.07898 131.647 2.79898 131.647 4.91398L131.648 35.457Z" fill="#FBF8F5"/>
<path d="M30.0529 19.973C30.0245 16.75 32.6333 15.182 32.7525 15.109C31.2751 12.906 28.9852 12.605 28.1805 12.581C26.2572 12.374 24.3916 13.758 23.4118 13.758C22.4125 13.758 20.9038 12.601 19.2778 12.635C17.1853 12.668 15.2278 13.907 14.1542 15.831C11.9386 19.754 13.591 25.519 15.7138 28.69C16.7757 30.243 18.0165 31.977 19.6405 31.916C21.2294 31.849 21.8229 30.88 23.7404 30.88C25.6402 30.88 26.1975 31.916 27.8539 31.877C29.5591 31.849 30.6327 30.317 31.6574 28.75C32.8845 26.97 33.3773 25.217 33.3969 25.127C33.3568 25.113 30.0852 23.836 30.0529 19.973Z" fill="#332C26"/>
<path d="M26.9242 10.495C27.7787 9.40201 28.3635 7.91501 28.2011 6.40601C26.9643 6.46201 25.4174 7.28101 24.5267 8.35001C23.7386 9.29201 23.0346 10.836 23.2164 12.288C24.6059 12.394 26.0324 11.571 26.9242 10.495Z" fill="#332C26"/>
<path d="M53.0473 31.6929H50.8268L49.6105 27.7839H45.3825L44.2239 31.6929H42.062L46.2508 18.3849H48.838L53.0473 31.6929ZM49.2438 26.1439L48.1438 22.6689C48.0274 22.3139 47.8094 21.4779 47.4877 20.1619H47.4486C47.3205 20.7279 47.1142 21.5639 46.8306 22.6689L45.7502 26.1439H49.2438Z" fill="#332C26"/>
<path d="M63.8193 26.7769C63.8193 28.4089 63.3881 29.6989 62.5257 30.6459C61.7533 31.4889 60.7941 31.9099 59.6491 31.9099C58.4132 31.9099 57.5254 31.4559 56.9847 30.5479H56.9456V35.6029H54.8609V25.2559C54.8609 24.2299 54.8345 23.1769 54.7837 22.0969H56.617L56.7334 23.6179H56.7725C57.4677 22.4719 58.5227 21.8999 59.9385 21.8999C61.0454 21.8999 61.9694 22.3469 62.7086 23.2419C63.4497 24.1379 63.8193 25.3159 63.8193 26.7769ZM61.6956 26.8549C61.6956 25.9209 61.4903 25.1509 61.0776 24.5449C60.6269 23.9129 60.0216 23.5969 59.2629 23.5969C58.7486 23.5969 58.2812 23.7729 57.8637 24.1199C57.4452 24.4699 57.1714 24.9269 57.0433 25.4929C56.9788 25.7569 56.9465 25.9729 56.9465 26.1429V27.7429C56.9465 28.4409 57.1558 29.0299 57.5743 29.5109C57.9928 29.9919 58.5364 30.2319 59.2052 30.2319C59.9904 30.2319 60.6015 29.9219 61.0385 29.3039C61.4766 28.6849 61.6956 27.8689 61.6956 26.8549Z" fill="#332C26"/>
<path d="M74.6113 26.7769C74.6113 28.4089 74.1801 29.6989 73.3168 30.6459C72.5453 31.4889 71.5861 31.9099 70.4411 31.9099C69.2052 31.9099 68.3174 31.4559 67.7776 30.5479H67.7385V35.6029H65.6539V25.2559C65.6539 24.2299 65.6275 23.1769 65.5767 22.0969H67.41L67.5264 23.6179H67.5655C68.2597 22.4719 69.3147 21.8999 70.7315 21.8999C71.8374 21.8999 72.7614 22.3469 73.5025 23.2419C74.2408 24.1379 74.6113 25.3159 74.6113 26.7769ZM72.4876 26.8549C72.4876 25.9209 72.2813 25.1509 71.8687 24.5449C71.4179 23.9129 70.8146 23.5969 70.0549 23.5969C69.5396 23.5969 69.0732 23.7729 68.6547 24.1199C68.2362 24.4699 67.9634 24.9269 67.8353 25.4929C67.7718 25.7569 67.7385 25.9729 67.7385 26.1429V27.7429C67.7385 28.4409 67.9478 29.0299 68.3643 29.5109C68.7828 29.9909 69.3264 30.2319 69.9972 30.2319C70.7824 30.2319 71.3935 29.9219 71.8305 29.3039C72.2686 28.6849 72.4876 27.8689 72.4876 26.8549Z" fill="#332C26"/>
<path d="M86.677 27.9609C86.677 29.0929 86.2928 30.0139 85.5213 30.7249C84.6736 31.5019 83.4934 31.8899 81.9769 31.8899C80.5767 31.8899 79.4542 31.6139 78.6045 31.0609L79.0875 29.2839C80.0027 29.8499 81.0069 30.1339 82.101 30.1339C82.8862 30.1339 83.4973 29.9519 83.9363 29.5899C84.3734 29.2279 84.5914 28.7419 84.5914 28.1359C84.5914 27.5959 84.4115 27.1409 84.0507 26.7719C83.6919 26.4029 83.0925 26.0599 82.2555 25.7429C79.9773 24.8739 78.8392 23.6009 78.8392 21.9269C78.8392 20.8329 79.2381 19.9359 80.0369 19.2379C80.8329 18.5389 81.8947 18.1899 83.2225 18.1899C84.4066 18.1899 85.3903 18.4009 86.1754 18.8219L85.6543 20.5599C84.9209 20.1519 84.0918 19.9479 83.1639 19.9479C82.4305 19.9479 81.8576 20.1329 81.4469 20.5009C81.0998 20.8299 80.9257 21.2309 80.9257 21.7059C80.9257 22.2319 81.1242 22.6669 81.5232 23.0089C81.8703 23.3249 82.5009 23.6669 83.4161 24.0359C84.5357 24.4969 85.358 25.0359 85.887 25.6539C86.414 26.2699 86.677 27.0409 86.677 27.9609Z" fill="#332C26"/>
<path d="M93.5696 23.6969H91.2718V28.3559C91.2718 29.5409 91.6766 30.1329 92.4882 30.1329C92.8607 30.1329 93.1697 30.0999 93.4141 30.0339L93.4718 31.6529C93.0612 31.8099 92.5204 31.8889 91.8507 31.8889C91.0274 31.8889 90.384 31.6319 89.9196 31.1189C89.4571 30.6049 89.2244 29.7429 89.2244 28.5319V23.6949H87.8555V22.0949H89.2244V20.3379L91.2718 19.7059V22.0949H93.5696V23.6969Z" fill="#332C26"/>
<path d="M103.937 26.816C103.937 28.291 103.524 29.502 102.701 30.449C101.837 31.424 100.691 31.91 99.2629 31.91C97.8862 31.91 96.7901 31.443 95.9727 30.509C95.1553 29.575 94.7466 28.396 94.7466 26.975C94.7466 25.488 95.167 24.27 96.0108 23.323C96.8527 22.375 97.9889 21.901 99.4174 21.901C100.794 21.901 101.902 22.368 102.738 23.303C103.538 24.21 103.937 25.381 103.937 26.816ZM101.774 26.885C101.774 26 101.589 25.241 101.215 24.608C100.778 23.842 100.153 23.46 99.3431 23.46C98.5052 23.46 97.8686 23.843 97.4316 24.608C97.0571 25.242 96.8723 26.013 96.8723 26.925C96.8723 27.81 97.0571 28.569 97.4316 29.201C97.8823 29.967 98.512 30.349 99.3245 30.349C100.12 30.349 100.745 29.959 101.196 29.181C101.58 28.536 101.774 27.769 101.774 26.885Z" fill="#332C26"/>
<path d="M110.713 23.9719C110.506 23.9329 110.286 23.9129 110.056 23.9129C109.322 23.9129 108.755 24.1959 108.356 24.7629C108.009 25.2629 107.835 25.8949 107.835 26.6579V31.6929H105.752L105.771 25.1189C105.771 24.0129 105.745 23.0059 105.693 22.0979H107.509L107.585 23.9339H107.643C107.863 23.3029 108.21 22.7949 108.685 22.4139C109.149 22.0709 109.651 21.8999 110.192 21.8999C110.384 21.8999 110.558 21.9139 110.713 21.9389V23.9719Z" fill="#332C26"/>
<path d="M120.036 26.441C120.036 26.823 120.011 27.145 119.96 27.408H113.706C113.73 28.356 114.032 29.081 114.613 29.581C115.14 30.028 115.822 30.252 116.659 30.252C117.584 30.252 118.429 30.101 119.189 29.798L119.516 31.278C118.628 31.674 117.58 31.871 116.37 31.871C114.915 31.871 113.773 31.433 112.942 30.558C112.113 29.683 111.697 28.508 111.697 27.034C111.697 25.587 112.083 24.382 112.857 23.421C113.667 22.395 114.761 21.882 116.137 21.882C117.49 21.882 118.513 22.395 119.209 23.421C119.759 24.236 120.036 25.244 120.036 26.441ZM118.048 25.888C118.062 25.256 117.926 24.71 117.643 24.249C117.282 23.656 116.728 23.36 115.982 23.36C115.3 23.36 114.746 23.649 114.323 24.229C113.975 24.69 113.769 25.243 113.706 25.887H118.048V25.888Z" fill="#332C26"/>
<path d="M48.5544 10.198C48.5544 11.375 48.2092 12.261 47.5199 12.856C46.8814 13.405 45.974 13.68 44.7987 13.68C44.216 13.68 43.7173 13.654 43.2998 13.602V7.17103C43.8444 7.08103 44.4311 7.03503 45.0647 7.03503C46.1842 7.03503 47.0281 7.28403 47.5971 7.78203C48.2346 8.34503 48.5544 9.15003 48.5544 10.198ZM47.4739 10.227C47.4739 9.46403 47.2764 8.87903 46.8814 8.47103C46.4864 8.06403 45.9095 7.86003 45.1498 7.86003C44.8271 7.86003 44.5523 7.88203 44.3245 7.92803V12.817C44.4506 12.837 44.6814 12.846 45.0168 12.846C45.801 12.846 46.4062 12.623 46.8325 12.177C47.2588 11.731 47.4739 11.081 47.4739 10.227Z" fill="#332C26"/>
<path d="M54.283 11.226C54.283 11.951 54.0806 12.545 53.6758 13.011C53.2514 13.49 52.6892 13.729 51.9871 13.729C51.3105 13.729 50.7718 13.5 50.3699 13.04C49.969 12.581 49.7686 12.002 49.7686 11.304C49.7686 10.574 49.9749 9.97501 50.3894 9.51001C50.804 9.04501 51.3614 8.81201 52.0634 8.81201C52.74 8.81201 53.2837 9.04101 53.6953 9.50001C54.0864 9.94601 54.283 10.522 54.283 11.226ZM53.2201 11.26C53.2201 10.825 53.1282 10.452 52.9454 10.141C52.7302 9.76501 52.4242 9.57701 52.0262 9.57701C51.6146 9.57701 51.3017 9.76501 51.0866 10.141C50.9028 10.452 50.8118 10.831 50.8118 11.279C50.8118 11.714 50.9038 12.087 51.0866 12.398C51.3086 12.774 51.6175 12.962 52.0165 12.962C52.4076 12.962 52.7146 12.771 52.9356 12.388C53.1253 12.071 53.2201 11.695 53.2201 11.26Z" fill="#332C26"/>
<path d="M61.9648 8.90796L60.5226 13.622H59.584L58.9865 11.575C58.835 11.064 58.7118 10.556 58.616 10.052H58.5974C58.5084 10.57 58.3852 11.077 58.2268 11.575L57.5922 13.622H56.6428L55.2866 8.90796H56.3397L56.8608 11.149C56.987 11.679 57.0906 12.184 57.1737 12.662H57.1923C57.2686 12.268 57.3947 11.766 57.5727 11.159L58.2268 8.90896H59.0618L59.6886 11.111C59.8401 11.648 59.9633 12.165 60.0582 12.663H60.0865C60.156 12.178 60.2606 11.661 60.3994 11.111L60.9587 8.90896H61.9648V8.90796Z" fill="#332C26"/>
<path d="M67.277 13.622H66.2523V10.922C66.2523 10.09 65.9433 9.67396 65.3234 9.67396C65.0193 9.67396 64.7739 9.78796 64.5832 10.017C64.3945 10.246 64.2987 10.516 64.2987 10.825V13.621H63.274V10.255C63.274 9.84096 63.2613 9.39196 63.2368 8.90596H64.1373L64.1853 9.64296H64.2136C64.3329 9.41396 64.5109 9.22496 64.7446 9.07396C65.0222 8.89796 65.3332 8.80896 65.6734 8.80896C66.1037 8.80896 66.4615 8.95096 66.7461 9.23596C67.1 9.58496 67.277 10.106 67.277 10.798V13.622Z" fill="#332C26"/>
<path d="M70.1028 13.622H69.0791V6.745H70.1028V13.622Z" fill="#332C26"/>
<path d="M76.1355 11.226C76.1355 11.951 75.9331 12.545 75.5283 13.011C75.1039 13.49 74.5407 13.729 73.8397 13.729C73.1621 13.729 72.6233 13.5 72.2224 13.04C71.8215 12.581 71.6211 12.002 71.6211 11.304C71.6211 10.574 71.8274 9.97501 72.242 9.51001C72.6566 9.04501 73.2139 8.81201 73.915 8.81201C74.5926 8.81201 75.1352 9.04101 75.5478 9.50001C75.939 9.94601 76.1355 10.522 76.1355 11.226ZM75.0717 11.26C75.0717 10.825 74.9798 10.452 74.7969 10.141C74.5828 9.76501 74.2758 9.57701 73.8788 9.57701C73.4662 9.57701 73.1533 9.76501 72.9391 10.141C72.7553 10.452 72.6644 10.831 72.6644 11.279C72.6644 11.714 72.7563 12.087 72.9391 12.398C73.1611 12.774 73.4701 12.962 73.869 12.962C74.2601 12.962 74.5662 12.771 74.7871 12.388C74.9778 12.071 75.0717 11.695 75.0717 11.26Z" fill="#332C26"/>
<path d="M81.095 13.622H80.1749L80.0987 13.079H80.0703C79.7555 13.512 79.3067 13.729 78.7239 13.729C78.2888 13.729 77.9368 13.586 77.6718 13.302C77.4313 13.044 77.311 12.723 77.311 12.342C77.311 11.766 77.5457 11.327 78.018 11.023C78.4893 10.719 79.1522 10.57 80.0058 10.577V10.489C80.0058 9.86801 79.687 9.55801 79.0485 9.55801C78.5939 9.55801 78.193 9.67501 77.8469 9.90701L77.6386 9.21901C78.0669 8.94801 78.5958 8.81201 79.2197 8.81201C80.4243 8.81201 81.0285 9.46201 81.0285 10.762V12.498C81.0285 12.969 81.051 13.344 81.095 13.622ZM80.0312 12.002V11.275C78.9009 11.255 78.3358 11.572 78.3358 12.225C78.3358 12.471 78.4003 12.655 78.5323 12.778C78.6643 12.901 78.8325 12.962 79.0329 12.962C79.2578 12.962 79.468 12.889 79.6597 12.744C79.8523 12.598 79.9706 12.413 80.0146 12.186C80.0253 12.135 80.0312 12.073 80.0312 12.002Z" fill="#332C26"/>
<path d="M86.9176 13.622H86.0082L85.9603 12.865H85.932C85.6416 13.441 85.1468 13.729 84.4516 13.729C83.8962 13.729 83.4338 13.506 83.0671 13.06C82.7004 12.614 82.5176 12.035 82.5176 11.324C82.5176 10.561 82.7161 9.94299 83.115 9.47099C83.5012 9.03099 83.9745 8.81099 84.5377 8.81099C85.1566 8.81099 85.5898 9.02399 85.8362 9.45099H85.8557V6.745H86.8814V12.352C86.8814 12.811 86.8931 13.234 86.9176 13.622ZM85.8557 11.634V10.848C85.8557 10.712 85.8459 10.602 85.8274 10.518C85.7697 10.266 85.6455 10.054 85.4568 9.883C85.2661 9.712 85.0363 9.626 84.7713 9.626C84.389 9.626 84.0898 9.78099 83.8698 10.092C83.6518 10.403 83.5413 10.8 83.5413 11.285C83.5413 11.751 83.6459 12.129 83.8562 12.42C84.0781 12.73 84.3773 12.885 84.7518 12.885C85.0882 12.885 85.357 12.756 85.5614 12.497C85.7589 12.258 85.8557 11.97 85.8557 11.634Z" fill="#332C26"/>
<path d="M95.6814 11.226C95.6814 11.951 95.479 12.545 95.0742 13.011C94.6498 13.49 94.0886 13.729 93.3856 13.729C92.7099 13.729 92.1712 13.5 91.7683 13.04C91.3674 12.581 91.167 12.002 91.167 11.304C91.167 10.574 91.3733 9.97501 91.7879 9.51001C92.2025 9.04501 92.7598 8.81201 93.4628 8.81201C94.1385 8.81201 94.6831 9.04101 95.0937 9.50001C95.4849 9.94601 95.6814 10.522 95.6814 11.226ZM94.6195 11.26C94.6195 10.825 94.5276 10.452 94.3448 10.141C94.1287 9.76501 93.8236 9.57701 93.4247 9.57701C93.014 9.57701 92.7011 9.76501 92.485 10.141C92.3012 10.452 92.2103 10.831 92.2103 11.279C92.2103 11.714 92.3022 12.087 92.485 12.398C92.707 12.774 93.016 12.962 93.4149 12.962C93.806 12.962 94.114 12.771 94.335 12.388C94.5237 12.071 94.6195 11.695 94.6195 11.26Z" fill="#332C26"/>
<path d="M101.191 13.622H100.167V10.922C100.167 10.09 99.8583 9.67396 99.2375 9.67396C98.9334 9.67396 98.6879 9.78796 98.4983 10.017C98.3086 10.246 98.2137 10.516 98.2137 10.825V13.621H97.188V10.255C97.188 9.84096 97.1763 9.39196 97.1519 8.90596H98.0514L98.0993 9.64296H98.1277C98.2479 9.41396 98.4259 9.22496 98.6586 9.07396C98.9373 8.89796 99.2472 8.80896 99.5885 8.80896C100.018 8.80896 100.376 8.95096 100.66 9.23596C101.015 9.58496 101.191 10.106 101.191 10.798V13.622Z" fill="#332C26"/>
<path d="M108.087 9.69301H106.959V11.983C106.959 12.565 107.16 12.856 107.557 12.856C107.74 12.856 107.893 12.84 108.013 12.807L108.04 13.602C107.837 13.68 107.571 13.719 107.244 13.719C106.839 13.719 106.524 13.593 106.296 13.341C106.067 13.089 105.954 12.665 105.954 12.07V9.69301H105.28V8.90801H105.954V8.04401L106.958 7.73401V8.90701H108.086V9.69301H108.087Z" fill="#332C26"/>
<path d="M113.512 13.622H112.487V10.942C112.487 10.097 112.178 9.67399 111.559 9.67399C111.084 9.67399 110.759 9.919 110.581 10.409C110.551 10.512 110.533 10.638 110.533 10.786V13.621H109.509V6.745H110.533V9.586H110.553C110.875 9.069 111.338 8.81099 111.937 8.81099C112.361 8.81099 112.712 8.95299 112.991 9.23799C113.338 9.59299 113.512 10.121 113.512 10.819V13.622Z" fill="#332C26"/>
<path d="M119.108 11.042C119.108 11.23 119.094 11.388 119.07 11.517H115.997C116.011 11.983 116.157 12.338 116.442 12.584C116.702 12.804 117.037 12.914 117.448 12.914C117.903 12.914 118.317 12.84 118.691 12.691L118.851 13.419C118.414 13.613 117.9 13.71 117.304 13.71C116.59 13.71 116.028 13.495 115.621 13.065C115.213 12.635 115.01 12.058 115.01 11.334C115.01 10.623 115.199 10.031 115.579 9.55898C115.976 9.05498 116.513 8.80298 117.191 8.80298C117.854 8.80298 118.357 9.05498 118.697 9.55898C118.972 9.95898 119.108 10.454 119.108 11.042ZM118.13 10.771C118.138 10.46 118.071 10.192 117.932 9.96598C117.754 9.67498 117.483 9.52898 117.116 9.52898C116.782 9.52898 116.509 9.67098 116.301 9.95598C116.131 10.183 116.03 10.454 115.997 10.771H118.13Z" fill="#332C26"/>
</g>
<defs>
<clipPath id="clip0_1668_8098">
<rect width="132" height="40" fill="white" transform="translate(0.594238 0.188965)"/>
</clipPath>
</defs>
</svg>
