<svg width="133" height="39" viewBox="0 0 133 39" fill="none" xmlns="http://www.w3.org/2000/svg">
<g clip-path="url(#clip0_1668_8086)">
<path fill-rule="evenodd" clip-rule="evenodd" d="M127.704 38.189H5.48493C2.78946 38.189 0.594238 36.0473 0.594238 33.439V4.93896C0.594238 2.32113 2.78946 0.188965 5.48493 0.188965H127.704C130.397 0.188965 132.594 2.32113 132.594 4.93896V33.439C132.594 36.0473 130.397 38.189 127.704 38.189Z" fill="#FBF8F5"/>
<path fill-rule="evenodd" clip-rule="evenodd" d="M127.704 0.949439C129.964 0.949439 131.815 2.74283 131.815 4.93896V33.439C131.815 35.6351 129.976 37.4285 127.704 37.4285H5.48493C3.22414 37.4285 1.37374 35.6351 1.37374 33.439V4.93896C1.37374 2.74283 3.21199 0.949439 5.48493 0.949439H127.704ZM127.704 0.188965H5.48493C2.78946 0.188965 0.594238 2.33061 0.594238 4.93896V33.439C0.594238 36.0568 2.78946 38.189 5.48493 38.189H127.704C130.397 38.189 132.594 36.0568 132.594 33.439V4.93896C132.594 2.33061 130.397 0.188965 127.704 0.188965Z" fill="#A6A6A6"/>
<path d="M70.1331 12.7592C69.2516 12.7592 68.5085 12.4584 67.9208 11.8661C67.338 11.2904 67.0126 10.4968 67.0272 9.68654C67.0272 8.82182 67.3283 8.08978 67.9208 7.50935C68.5061 6.91708 69.2491 6.61621 70.1306 6.61621C71.0024 6.61621 71.7455 6.91708 72.3429 7.50935C72.9354 8.10873 73.2365 8.84078 73.2365 9.68654C73.2268 10.5536 72.9257 11.2857 72.3429 11.8637C71.7576 12.4607 71.0145 12.7592 70.1331 12.7592ZM43.9045 12.7592C43.0424 12.7592 42.2945 12.4631 41.6826 11.8779C41.0755 11.2951 40.7671 10.5584 40.7671 9.68891C40.7671 8.81945 41.0755 8.08267 41.6826 7.49988C42.2824 6.91472 43.0303 6.61858 43.9045 6.61858C44.3319 6.61858 44.7471 6.7015 45.1454 6.8697C45.5364 7.03317 45.8545 7.25586 46.09 7.52831L46.1483 7.59701L45.4902 8.22718L45.4222 8.149C45.0507 7.71783 44.5529 7.50698 43.8948 7.50698C43.3071 7.50698 42.7948 7.71073 42.3722 8.11347C41.9473 8.51858 41.7311 9.04925 41.7311 9.69127C41.7311 10.3333 41.9473 10.864 42.3722 11.2691C42.7948 11.6718 43.3071 11.8756 43.8948 11.8756C44.5213 11.8756 45.0483 11.6718 45.4587 11.2691C45.7015 11.0322 45.852 10.7005 45.9055 10.2812H43.7952V9.39514H46.8112L46.8234 9.47569C46.8452 9.62494 46.8671 9.77893 46.8671 9.92107C46.8671 10.7384 46.6145 11.3994 46.1143 11.8874C45.5461 12.4655 44.803 12.7592 43.9045 12.7592ZM78.778 12.6337H77.8479L74.9995 8.18691L75.0237 8.98766V12.6313H74.0937V6.74414H75.1549L75.184 6.78915L77.8625 10.9777L77.8382 10.1793V6.74414H78.778V12.6337ZM63.1443 12.6337H62.2021V7.63018H60.5678V6.74414H64.7761V7.63018H63.1419V12.6337H63.1443ZM59.8005 12.6337H58.8607V6.74414H59.8005V12.6337ZM54.5188 12.6337H53.579V7.63018H51.9448V6.74414H56.1531V7.63018H54.5188V12.6337ZM51.3498 12.6242H47.7461V6.74414H51.3498V7.63018H48.6883V9.24589H51.09V10.1224H48.6883V11.7382H51.3498V12.6242ZM68.6105 11.2572C69.0306 11.6671 69.5405 11.8732 70.1331 11.8732C70.7426 11.8732 71.2404 11.6718 71.6556 11.2572C72.0684 10.8545 72.2773 10.3262 72.2773 9.68891C72.2773 9.05162 72.0684 8.52095 71.6581 8.12058C71.238 7.71072 70.7256 7.50462 70.1355 7.50462C69.526 7.50462 69.0282 7.70599 68.6153 8.12058C68.2025 8.52332 67.9937 9.05162 67.9937 9.68891C67.9937 10.3262 68.2001 10.8569 68.6105 11.2572Z" fill="#332C26"/>
<path fill-rule="evenodd" clip-rule="evenodd" d="M66.9393 20.8568C64.6445 20.8568 62.7844 22.5554 62.7844 24.8984C62.7844 27.2201 64.6567 28.9401 66.9393 28.9401C69.2341 28.9401 71.0942 27.2296 71.0942 24.8984C71.0942 22.5554 69.2341 20.8568 66.9393 20.8568ZM66.9393 27.3386C65.6839 27.3386 64.6032 26.3246 64.6032 24.889C64.6032 23.432 65.6863 22.4393 66.9393 22.4393C68.1948 22.4393 69.2754 23.432 69.2754 24.889C69.2778 26.3341 68.1948 27.3386 66.9393 27.3386ZM57.8743 20.8568C55.5795 20.8568 53.7194 22.5554 53.7194 24.8984C53.7194 27.2201 55.5916 28.9401 57.8743 28.9401C60.1691 28.9401 62.0292 27.2296 62.0292 24.8984C62.0292 22.5554 60.1667 20.8568 57.8743 20.8568ZM57.8743 27.3386C56.6188 27.3386 55.5382 26.3246 55.5382 24.889C55.5382 23.432 56.6213 22.4393 57.8743 22.4393C59.1297 22.4393 60.2104 23.432 60.2104 24.889C60.2104 26.3341 59.1297 27.3386 57.8743 27.3386ZM47.0876 22.0911V23.8015H51.2959C51.1672 24.761 50.8418 25.4694 50.344 25.955C49.7272 26.5568 48.7753 27.2106 47.0973 27.2106C44.5111 27.2106 42.4883 25.1732 42.4883 22.6502C42.4883 20.1271 44.5111 18.0897 47.0973 18.0897C48.4936 18.0897 49.5111 18.6275 50.2663 19.3145L51.5096 18.1015C50.4605 17.1207 49.0642 16.3698 47.107 16.3698C43.5592 16.3698 40.582 19.189 40.582 22.6407C40.582 26.1019 43.5568 28.9116 47.107 28.9116C49.023 28.9116 50.4605 28.3004 51.597 27.1491C52.7553 26.019 53.122 24.4246 53.122 23.1382C53.122 22.7378 53.0904 22.3777 53.0249 22.0721H47.0851C47.0876 22.0698 47.0876 22.0911 47.0876 22.0911ZM91.2082 23.4225C90.861 22.5151 89.8119 20.8473 87.6604 20.8473C85.5283 20.8473 83.7556 22.4843 83.7556 24.889C83.7556 27.1585 85.5089 28.9306 87.8668 28.9306C89.7609 28.9306 90.8634 27.8005 91.3175 27.1372L89.9115 26.218C89.4452 26.8932 88.7969 27.3362 87.8765 27.3362C86.9465 27.3362 86.2957 26.924 85.8634 26.1114L91.4025 23.8726C91.4025 23.875 91.2082 23.4225 91.2082 23.4225ZM85.5599 24.7729C85.5162 23.2116 86.8032 22.418 87.7235 22.418C88.4496 22.418 89.0543 22.7663 89.2607 23.2732L85.5599 24.7729ZM81.0602 28.689H82.879V16.8151H81.0602V28.689ZM78.0733 21.7547H78.0077C77.5973 21.2785 76.8178 20.8473 75.8222 20.8473C73.7557 20.8473 71.8519 22.6217 71.8519 24.9008C71.8519 27.1704 73.746 28.9235 75.8222 28.9235C76.8057 28.9235 77.5973 28.49 78.0077 28.0043H78.0733V28.5847C78.0733 30.127 77.2282 30.9585 75.8659 30.9585C74.7513 30.9585 74.0592 30.1767 73.7775 29.5229L72.1967 30.1673C72.6508 31.2333 73.8625 32.5529 75.8635 32.5529C77.9956 32.5529 79.8023 31.3281 79.8023 28.3407V21.089H78.083V21.7547C78.0854 21.7547 78.0733 21.7547 78.0733 21.7547ZM75.9849 27.3386C74.7295 27.3386 73.6804 26.3151 73.6804 24.9008C73.6804 23.4746 74.7295 22.4417 75.9849 22.4417C77.2282 22.4417 78.1923 23.4865 78.1923 24.9008C78.2044 26.3151 77.2306 27.3386 75.9849 27.3386ZM99.7244 16.8151H95.3753V28.689H97.1941V24.1924H99.7268C101.74 24.1924 103.719 22.7686 103.719 20.5085C103.719 18.2484 101.747 16.8151 99.7244 16.8151ZM99.7778 22.5341H97.1917V18.4593H99.7778C101.14 18.4593 101.91 19.5562 101.91 20.4967C101.91 21.4277 101.13 22.5341 99.7778 22.5341ZM111.009 20.8355C109.688 20.8355 108.326 21.4064 107.762 22.6502L109.375 23.304C109.722 22.6502 110.358 22.4275 111.031 22.4275C111.973 22.4275 112.925 22.9771 112.947 23.9579V24.0835C112.621 23.9034 111.907 23.6286 111.053 23.6286C109.312 23.6286 107.546 24.5573 107.546 26.2986C107.546 27.8929 108.974 28.9164 110.565 28.9164C111.786 28.9164 112.459 28.3786 112.879 27.7555H112.944V28.6747H114.698V24.1261C114.698 22.0082 113.085 20.8355 111.009 20.8355ZM110.781 27.3386C110.186 27.3386 109.353 27.0543 109.353 26.3246C109.353 25.4054 110.392 25.0572 111.278 25.0572C112.08 25.0572 112.459 25.2254 112.935 25.4575C112.804 26.5236 111.881 27.3291 110.781 27.3386ZM121.094 21.089L119.006 26.2393H118.94L116.776 21.089H114.819L118.066 28.2886L116.215 32.29H118.109L123.105 21.089H121.094ZM104.722 28.689H106.541V16.8151H104.722V28.689Z" fill="#332C26"/>
<path fill-rule="evenodd" clip-rule="evenodd" d="M10.7544 7.34595C10.4728 7.64208 10.3101 8.09458 10.3101 8.68685V29.6935C10.3101 30.2857 10.4728 30.7382 10.7642 31.0225L10.8394 31.0865L22.9035 19.3169V19.0539L10.8297 7.28198L10.7544 7.34595Z" fill="url(#paint0_linear_1668_8086)"/>
<path fill-rule="evenodd" clip-rule="evenodd" d="M26.9173 23.2519L22.8936 19.3264V19.0515L26.9173 15.126L27.0047 15.1781L31.7643 17.8172C33.1266 18.5659 33.1266 19.8025 31.7643 20.5606L27.0047 23.1998L26.9173 23.2519Z" fill="url(#paint1_linear_1668_8086)"/>
<path fill-rule="evenodd" clip-rule="evenodd" d="M27.0054 23.1998L22.8942 19.189L10.7549 31.032C11.1993 31.4963 11.9448 31.5484 12.7777 31.0959L27.0054 23.1998Z" fill="url(#paint2_linear_1668_8086)"/>
<path fill-rule="evenodd" clip-rule="evenodd" d="M27.0054 15.178L12.7777 7.29375C11.9448 6.82941 11.1968 6.89337 10.7549 7.35771L22.8942 19.1889L27.0054 15.178Z" fill="url(#paint3_linear_1668_8086)"/>
<path opacity="0.2" fill-rule="evenodd" clip-rule="evenodd" d="M26.9175 23.1145L12.787 30.9467C11.9978 31.3897 11.2935 31.3589 10.8394 30.9562L10.7642 31.0296L10.8394 31.0936C11.2935 31.494 11.9978 31.5271 12.787 31.0841L27.0147 23.1998L26.9175 23.1145Z" fill="#FBF8F5"/>
<path opacity="0.12" fill-rule="evenodd" clip-rule="evenodd" d="M31.7649 20.4233L26.9058 23.1145L26.9932 23.1998L31.7527 20.5607C32.4351 20.1816 32.7702 19.6841 32.7702 19.189C32.7289 19.6438 32.3817 20.075 31.7649 20.4233Z" fill="#FBF8F5"/>
<path opacity="0.25" fill-rule="evenodd" clip-rule="evenodd" d="M12.7773 7.43127L31.7645 17.9547C32.3813 18.2935 32.7285 18.7365 32.782 19.189C32.782 18.6939 32.4469 18.1964 31.7645 17.8173L12.7773 7.29386C11.415 6.53338 10.3101 7.1683 10.3101 8.68688V8.82428C10.3101 7.30334 11.415 6.68027 12.7773 7.43127Z" fill="#332C26"/>
</g>
<defs>
<linearGradient id="paint0_linear_1668_8086" x1="21.8213" y1="8.46021" x2="2.56154" y2="13.7204" gradientUnits="userSpaceOnUse">
<stop stop-color="#00A0FF"/>
<stop offset="0.00657" stop-color="#00A1FF"/>
<stop offset="0.2601" stop-color="#00BEFF"/>
<stop offset="0.5122" stop-color="#00D2FF"/>
<stop offset="0.7604" stop-color="#00DFFF"/>
<stop offset="1" stop-color="#00E3FF"/>
</linearGradient>
<linearGradient id="paint1_linear_1668_8086" x1="33.5409" y1="19.189" x2="9.97876" y2="19.189" gradientUnits="userSpaceOnUse">
<stop stop-color="#FFE000"/>
<stop offset="0.4087" stop-color="#FFBD00"/>
<stop offset="0.7754" stop-color="#FFA500"/>
<stop offset="1" stop-color="#FF9C00"/>
</linearGradient>
<linearGradient id="paint2_linear_1668_8086" x1="24.7699" y1="21.3714" x2="9.81618" y2="47.1694" gradientUnits="userSpaceOnUse">
<stop stop-color="#FF3A44"/>
<stop offset="1" stop-color="#C31162"/>
</linearGradient>
<linearGradient id="paint3_linear_1668_8086" x1="7.69808" y1="0.358738" x2="14.3694" y2="11.8803" gradientUnits="userSpaceOnUse">
<stop stop-color="#32A071"/>
<stop offset="0.0685" stop-color="#2DA771"/>
<stop offset="0.4762" stop-color="#15CF74"/>
<stop offset="0.8009" stop-color="#06E775"/>
<stop offset="1" stop-color="#00F076"/>
</linearGradient>
<clipPath id="clip0_1668_8086">
<rect width="132" height="38" fill="white" transform="translate(0.594238 0.188965)"/>
</clipPath>
</defs>
</svg>
