<svg width="74" height="28" viewBox="0 0 74 28" fill="none" xmlns="http://www.w3.org/2000/svg">
<path d="M13.388 0.924302C10.3703 1.04269 7.5891 2.76594 5.95875 5.53498L5.86925 5.67968H0V10.3364C0 12.9015 2.03314 14.9931 4.52661 14.9931H13.7397C14.9928 14.9931 16.2012 14.4472 17.0579 13.5001C17.8379 12.6384 18.2727 11.5071 18.2727 10.3298V10.2969V5.67968H13.7461C12.4865 5.68625 11.2782 6.22559 10.4278 7.16614C9.64781 8.03434 9.21305 9.15906 9.21305 10.3364V13.4146H7.76173C6.86024 13.4146 6.11859 12.6582 6.11859 11.7242V10.5666C6.11859 6.2519 9.29617 2.71332 13.356 2.50285C13.4839 2.49627 13.6182 2.4897 13.7461 2.4897H21.3607V10.3298C21.3607 12.941 20.0948 15.3746 17.9786 16.8413C17.6269 17.0847 17.2433 17.3017 16.8469 17.4859C15.8623 17.9397 14.8202 18.1699 13.7461 18.1699H3.01134C1.34903 18.1699 0 19.5577 0 21.2678V23.7804H4.60333V27.7991H7.15434C9.13633 27.7991 10.7475 26.1416 10.7475 24.1026V23.7935L11.048 23.7804H13.7269C16.2331 23.7804 18.2727 21.6822 18.2727 19.1039V18.512L18.4197 18.4199C21.1817 16.7229 22.9016 13.625 22.9016 10.3232V0.917725H13.7397C13.6246 0.917725 13.5031 0.917725 13.388 0.924302ZM5.01891 7.65944C4.7312 8.60657 4.58415 9.58001 4.58415 10.56V11.9018C4.58415 12.2767 4.64808 12.645 4.78235 13.0002L4.93579 13.4211L4.50103 13.4146C2.86429 13.4014 1.53444 12.0202 1.53444 10.3364V7.2648H5.14039L5.01891 7.65944ZM10.7475 10.3364C10.7475 8.63945 12.0901 7.25822 13.7397 7.25822H16.7318V10.3364C16.7318 12.0333 15.3892 13.4146 13.7397 13.4146H10.7475V10.3364ZM4.60333 22.2084H1.53444V21.4454C1.53444 20.518 2.2697 19.7551 3.17758 19.7551H4.60333V22.2084ZM9.21305 24.0961C9.21305 25.2734 8.28599 26.2271 7.14155 26.2271H6.14417V19.7616H9.21305V24.0961ZM16.6359 19.7616C16.2843 21.2021 15.0248 22.2084 13.5798 22.2084H10.7475V19.7551H13.7397C14.5964 19.7551 15.4467 19.6301 16.2651 19.3867L16.7638 19.242L16.6359 19.7616Z" fill="#332C26"/>
<path d="M52.2859 9.40208C52.2795 8.78381 51.8256 8.3234 51.2438 8.31683C50.598 8.31025 50.1441 8.77724 50.1441 9.44812C50.1441 11.1648 50.1441 12.8815 50.1441 14.5981C50.1377 16.6568 48.3156 18.2091 46.3527 17.8276C44.8311 17.5316 43.757 16.1767 43.7506 14.5389C43.7442 12.842 43.7506 11.1451 43.7506 9.4547C43.7506 9.23107 43.7122 9.02717 43.5971 8.83643C43.335 8.40891 42.8491 8.21817 42.376 8.35629C41.922 8.48784 41.6152 8.91536 41.6152 9.42181C41.6152 11.1582 41.5896 12.8946 41.6215 14.631C41.6599 16.8015 42.6445 18.4393 44.4922 19.439C46.3208 20.4322 48.1557 20.3335 49.9203 19.1759C50.0993 19.0575 50.1185 19.0641 50.1761 19.2746C50.2975 19.689 50.5469 19.9718 50.9689 20.0573C51.6849 20.2086 52.2859 19.7021 52.2859 18.9457C52.2923 17.3672 52.2859 15.7952 52.2859 14.2167C52.2859 13.2893 52.2859 12.3619 52.2859 11.4345C52.2859 10.7504 52.2987 10.0795 52.2859 9.40208Z" fill="#332C26"/>
<path d="M34.5249 8.30433C31.4049 8.29776 28.873 10.8892 28.8027 14.0595C28.7707 15.3815 28.7963 16.7101 28.7963 18.0387H28.7899C28.7899 19.1568 28.7899 19.2292 28.7899 20.3473C28.7899 20.663 28.7835 20.9788 28.8027 21.2879C28.8283 21.7351 29.1288 22.0903 29.5443 22.2087C30.2796 22.4126 30.9317 21.9127 30.9381 21.13C30.9445 20.1237 30.9381 20.1632 30.9381 19.1568C30.9381 19.0779 30.9062 18.9793 30.9957 18.9266C31.0852 18.874 31.1427 18.9661 31.2067 19.0121C32.6644 20.0711 34.2756 20.3342 35.9762 19.8935C39.0068 19.1174 40.8097 15.9471 40.1 12.7703C39.5822 10.4946 37.3508 8.31091 34.5249 8.30433ZM34.5569 17.8743C32.5429 17.8743 30.9445 16.2497 30.9381 14.2042C30.9317 12.1718 32.5429 10.5077 34.5185 10.5077C36.4685 10.5077 38.0989 12.1652 38.0989 14.1647C38.0989 16.2036 36.5005 17.8743 34.5569 17.8743Z" fill="#332C26"/>
<path d="M62.2023 8.95484C61.9401 8.73121 61.6396 8.59309 61.3136 8.51416C59.5617 8.0998 57.9058 8.29054 56.397 9.36921C56.1156 9.56653 56.1156 9.56653 56.0709 9.23109C56.0645 9.19162 56.0581 9.15216 56.0453 9.10612C55.8983 8.56678 55.406 8.2445 54.8369 8.32342C54.3382 8.3892 53.9482 8.8496 53.9482 9.38236C53.9482 10.9872 53.9482 12.5921 53.9482 14.1969C53.9482 15.7821 53.9482 17.3672 53.9482 18.9457C53.9482 19.1759 53.993 19.3864 54.1145 19.5771C54.3894 19.9915 54.8689 20.1691 55.3292 20.031C55.7832 19.8929 56.0837 19.4719 56.0837 18.9589C56.0837 17.3738 56.0773 15.7886 56.0837 14.2101C56.0901 11.9804 57.925 10.2966 60.0796 10.5268C60.4632 10.5663 60.8213 10.6715 61.1793 10.8096C61.6716 11.0004 62.1895 10.7965 62.4516 10.3163C62.7137 9.85593 62.6114 9.29686 62.2023 8.95484Z" fill="#332C26"/>
<path d="M73.9986 14.2368C74.0753 10.8561 71.0959 7.77135 67.2918 8.37646C64.6513 8.79741 61.7806 11.6125 62.7077 15.6049C63.6411 19.6302 68.2061 21.4126 71.5691 19.0053C71.812 18.8343 71.8248 18.8343 71.8632 19.1435C71.9207 19.5973 72.266 19.9722 72.6943 20.0577C73.3976 20.2024 73.9858 19.7025 73.9922 18.9462C73.9986 18.0977 73.9922 17.2426 73.9922 16.3942C73.9922 15.6772 73.9794 14.9537 73.9986 14.2368ZM68.2061 17.8741C66.2561 17.8675 64.6832 16.2034 64.6896 14.1447C64.696 12.1452 66.32 10.5009 68.2828 10.5075C70.2456 10.5141 71.8568 12.1847 71.8504 14.1974C71.844 16.2495 70.22 17.8806 68.2061 17.8741Z" fill="#332C26"/>
</svg>
