<svg width="26" height="30" viewBox="0 0 26 30" fill="none" xmlns="http://www.w3.org/2000/svg">
<path d="M15.1972 0.00734035C11.7717 0.139467 8.61465 2.06264 6.76399 5.15292L6.66239 5.31441H0V10.5114C0 13.3741 2.30789 15.7083 5.13831 15.7083H15.5964C17.0188 15.7083 18.3905 15.0991 19.363 14.0421C20.2484 13.0805 20.7419 11.818 20.7419 10.504V10.4673V5.31441H15.6036C14.1739 5.32175 12.8022 5.92366 11.837 6.97333C10.9516 7.94226 10.4581 9.19745 10.4581 10.5114V13.9467H8.81061C7.7873 13.9467 6.94543 13.1025 6.94543 12.0602V10.7683C6.94543 5.95302 10.5524 2.00391 15.1609 1.76902C15.3061 1.76168 15.4585 1.75434 15.6036 1.75434H24.2473V10.504C24.2473 13.4182 22.8103 16.1341 20.4081 17.771C20.0089 18.0426 19.5735 18.2848 19.1235 18.4903C18.0059 18.9968 16.8229 19.2537 15.6036 19.2537H3.41828C1.53133 19.2537 0 20.8025 0 22.711V25.515H5.2254V30H8.12114C10.371 30 12.1999 28.1502 12.1999 25.8747V25.5297L12.541 25.515H15.5819C18.4268 25.515 20.7419 23.1735 20.7419 20.2961V19.6354L20.9089 19.5327C24.0441 17.6389 25.9964 14.1816 25.9964 10.4967V0H15.5964C15.4657 0 15.3278 0 15.1972 0.00734035ZM5.69714 7.52386C5.37055 8.58087 5.20363 9.66724 5.20363 10.7609V12.2584C5.20363 12.6768 5.2762 13.0878 5.42861 13.4842L5.60279 13.954L5.10928 13.9467C3.25136 13.932 1.7418 12.3905 1.7418 10.5114V7.08344H5.83503L5.69714 7.52386ZM12.1999 10.5114C12.1999 8.61757 13.7239 7.07609 15.5964 7.07609H18.9929V10.5114C18.9929 12.4052 17.4688 13.9467 15.5964 13.9467H12.1999V10.5114ZM5.2254 23.7607H1.7418V22.9092C1.7418 21.8742 2.57641 21.0228 3.60698 21.0228H5.2254V23.7607ZM10.4581 25.8674C10.4581 27.1813 9.40572 28.2457 8.10663 28.2457H6.97446V21.0301H10.4581V25.8674ZM18.884 21.0301C18.4849 22.6376 17.0551 23.7607 15.4149 23.7607H12.1999V21.0228H15.5964C16.5689 21.0228 17.5341 20.8833 18.4631 20.6117L19.0292 20.4502L18.884 21.0301Z" fill="#332C26"/>
</svg>
